<?xml version="1.0" encoding="UTF-8" standalone="no"?>
<!-- Created with Inkscape (http://www.inkscape.org/) -->

<svg
   xmlns:dc="http://purl.org/dc/elements/1.1/"
   xmlns:cc="http://creativecommons.org/ns#"
   xmlns:rdf="http://www.w3.org/1999/02/22-rdf-syntax-ns#"
   xmlns:svg="http://www.w3.org/2000/svg"
   xmlns="http://www.w3.org/2000/svg"
   xmlns:sodipodi="http://sodipodi.sourceforge.net/DTD/sodipodi-0.dtd"
   xmlns:inkscape="http://www.inkscape.org/namespaces/inkscape"
   width="58.142857mm"
   height="43.607143mm"
   viewBox="0 0 58.142857 43.607143"
   version="1.1"
   id="svg1611"
   inkscape:version="0.92.5 (0.92.5+69)"
   sodipodi:docname="bearing_dimensions.svg"
   inkscape:export-filename="/mnt/hgfs/repos/madernpytools/madernpytools/figures/bearing_dimensions.png"
   inkscape:export-xdpi="300"
   inkscape:export-ydpi="300">
  <defs
     id="defs1605">
    <marker
       inkscape:stockid="Arrow1Mend"
       orient="auto"
       refY="0"
       refX="0"
       id="marker13569-9-4-9-8-8-3-81"
       style="overflow:visible"
       inkscape:isstock="true">
      <path
         id="path13571-6-9-4-5-5-8-2"
         d="M 0,0 5,-5 -12.5,0 5,5 Z"
         style="fill:#000000;fill-opacity:1;fill-rule:evenodd;stroke:#000000;stroke-width:1.00000003pt;stroke-opacity:1"
         transform="matrix(-0.4,0,0,-0.4,-4,0)"
         inkscape:connector-curvature="0" />
    </marker>
    <clipPath
       clipPathUnits="userSpaceOnUse"
       id="clipPath24684">
      <ellipse
         style="opacity:0.98000004;fill:none;fill-opacity:1;fill-rule:evenodd;stroke:#000000;stroke-width:0.625;stroke-linecap:round;stroke-linejoin:round;stroke-miterlimit:4;stroke-dasharray:3.74999985, 3.74999985;stroke-dashoffset:0;stroke-opacity:1"
         id="ellipse24686"
         cx="1245.5612"
         cy="255.75421"
         rx="27.986574"
         ry="23.437498" />
    </clipPath>
    <marker
       inkscape:stockid="Arrow1Mend"
       orient="auto"
       refY="0"
       refX="0"
       id="marker13569-9-3"
       style="overflow:visible"
       inkscape:isstock="true">
      <path
         id="path13571-6-0"
         d="M 0,0 5,-5 -12.5,0 5,5 Z"
         style="fill:#000000;fill-opacity:1;fill-rule:evenodd;stroke:#000000;stroke-width:1.00000003pt;stroke-opacity:1"
         transform="matrix(-0.4,0,0,-0.4,-4,0)"
         inkscape:connector-curvature="0" />
    </marker>
    <marker
       inkscape:stockid="Arrow1Mend"
       orient="auto"
       refY="0"
       refX="0"
       id="marker13569-9-4-9-6"
       style="overflow:visible"
       inkscape:isstock="true">
      <path
         id="path13571-6-9-4-0"
         d="M 0,0 5,-5 -12.5,0 5,5 Z"
         style="fill:#000000;fill-opacity:1;fill-rule:evenodd;stroke:#000000;stroke-width:1.00000003pt;stroke-opacity:1"
         transform="matrix(-0.4,0,0,-0.4,-4,0)"
         inkscape:connector-curvature="0" />
    </marker>
    <marker
       inkscape:stockid="Arrow1Mend"
       orient="auto"
       refY="0"
       refX="0"
       id="marker13569-9-4-9-8-8-3-8"
       style="overflow:visible"
       inkscape:isstock="true">
      <path
         id="path13571-6-9-4-5-5-8-9"
         d="M 0,0 5,-5 -12.5,0 5,5 Z"
         style="fill:#000000;fill-opacity:1;fill-rule:evenodd;stroke:#000000;stroke-width:1.00000003pt;stroke-opacity:1"
         transform="matrix(-0.4,0,0,-0.4,-4,0)"
         inkscape:connector-curvature="0" />
    </marker>
    <marker
       inkscape:stockid="Arrow1Mend"
       orient="auto"
       refY="0"
       refX="0"
       id="marker13569-9-4-9-8-8-3"
       style="overflow:visible"
       inkscape:isstock="true">
      <path
         id="path13571-6-9-4-5-5-8"
         d="M 0,0 5,-5 -12.5,0 5,5 Z"
         style="fill:#000000;fill-opacity:1;fill-rule:evenodd;stroke:#000000;stroke-width:1.00000003pt;stroke-opacity:1"
         transform="matrix(-0.4,0,0,-0.4,-4,0)"
         inkscape:connector-curvature="0" />
    </marker>
    <marker
       inkscape:collect="always"
       inkscape:isstock="true"
       style="overflow:visible"
       id="marker14465-85-5-4-1-4"
       refX="0"
       refY="0"
       orient="auto"
       inkscape:stockid="Arrow1Mstart">
      <path
         transform="matrix(0.4,0,0,0.4,4,0)"
         style="fill:#000000;fill-opacity:1;fill-rule:evenodd;stroke:#000000;stroke-width:1.00000003pt;stroke-opacity:1"
         d="M 0,0 5,-5 -12.5,0 5,5 Z"
         id="path14467-0-4-6-7-1"
         inkscape:connector-curvature="0" />
    </marker>
    <marker
       inkscape:stockid="Arrow1Mend"
       orient="auto"
       refY="0"
       refX="0"
       id="marker13569-9-4-9-8-8"
       style="overflow:visible"
       inkscape:isstock="true">
      <path
         id="path13571-6-9-4-5-5"
         d="M 0,0 5,-5 -12.5,0 5,5 Z"
         style="fill:#000000;fill-opacity:1;fill-rule:evenodd;stroke:#000000;stroke-width:1.00000003pt;stroke-opacity:1"
         transform="matrix(-0.4,0,0,-0.4,-4,0)"
         inkscape:connector-curvature="0" />
    </marker>
    <marker
       inkscape:stockid="Arrow1Mend"
       orient="auto"
       refY="0"
       refX="0"
       id="marker13569-9-4-9-8"
       style="overflow:visible"
       inkscape:isstock="true">
      <path
         id="path13571-6-9-4-5"
         d="M 0,0 5,-5 -12.5,0 5,5 Z"
         style="fill:#000000;fill-opacity:1;fill-rule:evenodd;stroke:#000000;stroke-width:1.00000003pt;stroke-opacity:1"
         transform="matrix(-0.4,0,0,-0.4,-4,0)"
         inkscape:connector-curvature="0" />
    </marker>
    <marker
       inkscape:stockid="Arrow1Mend"
       orient="auto"
       refY="0"
       refX="0"
       id="marker13569-9-4-9"
       style="overflow:visible"
       inkscape:isstock="true">
      <path
         id="path13571-6-9-4"
         d="M 0,0 5,-5 -12.5,0 5,5 Z"
         style="fill:#000000;fill-opacity:1;fill-rule:evenodd;stroke:#000000;stroke-width:1.00000003pt;stroke-opacity:1"
         transform="matrix(-0.4,0,0,-0.4,-4,0)"
         inkscape:connector-curvature="0" />
    </marker>
  </defs>
  <sodipodi:namedview
     id="base"
     pagecolor="#ffffff"
     bordercolor="#666666"
     borderopacity="1.0"
     inkscape:pageopacity="0.0"
     inkscape:pageshadow="2"
     inkscape:zoom="2.8"
     inkscape:cx="273.61389"
     inkscape:cy="100.59287"
     inkscape:document-units="mm"
     inkscape:current-layer="layer2"
     showgrid="false"
     inkscape:window-width="1920"
     inkscape:window-height="1016"
     inkscape:window-x="0"
     inkscape:window-y="27"
     inkscape:window-maximized="1"
     fit-margin-top="0"
     fit-margin-left="0"
     fit-margin-right="0"
     fit-margin-bottom="0" />
  <metadata
     id="metadata1608">
    <rdf:RDF>
      <cc:Work
         rdf:about="">
        <dc:format>image/svg+xml</dc:format>
        <dc:type
           rdf:resource="http://purl.org/dc/dcmitype/StillImage" />
        <dc:title></dc:title>
      </cc:Work>
    </rdf:RDF>
  </metadata>
  <g
     inkscape:label="bearing_block"
     inkscape:groupmode="layer"
     id="layer1"
     transform="translate(-28.915176,-150.40041)">
    <rect
       y="157.79048"
       x="47.361298"
       height="28.826982"
       width="7.4587307"
       id="rect4308"
       style="display:inline;opacity:1;fill:#000000;fill-opacity:0.63636361;stroke:#000000;stroke-width:0;stroke-linecap:square;stroke-linejoin:miter;stroke-miterlimit:4;stroke-dasharray:none;stroke-dashoffset:0;stroke-opacity:1" />
    <path
       inkscape:connector-curvature="0"
       id="path7887-3-9-2-7-9"
       d="m 51.633604,156.3276 h 4.545984"
       style="display:inline;fill:none;fill-rule:evenodd;stroke:#000000;stroke-width:0.15000001;stroke-linecap:butt;stroke-linejoin:miter;stroke-miterlimit:4;stroke-dasharray:none;stroke-opacity:1;marker-start:url(#marker14465-85-5-4-1-4);marker-end:url(#marker13569-9-4-9-8-8)" />
    <path
       inkscape:connector-curvature="0"
       style="opacity:0.98000004;fill:#a9a9a9;fill-opacity:1;fill-rule:evenodd;stroke:none;stroke-width:0.99999994;stroke-linecap:round;stroke-linejoin:round;stroke-miterlimit:4;stroke-dasharray:none;stroke-dashoffset:0;stroke-opacity:1"
       d="m 49.654058,165.33236 c -0.08329,0 -0.150379,0.0671 -0.150379,0.15038 v 0.98392 h 3.173966 v -0.98392 c 0,-0.0833 -0.06709,-0.15038 -0.150379,-0.15038 z m -0.150379,1.68931 v 0.9834 c 0,0.0833 0.06709,0.15038 0.150379,0.15038 h 2.873208 c 0.08329,0 0.150379,-0.0671 0.150379,-0.15038 v -0.9834 z"
       id="rect2774" />
    <circle
       style="opacity:1;fill:#ffd0ab;fill-opacity:1;fill-rule:evenodd;stroke:none;stroke-width:1;stroke-linecap:round;stroke-linejoin:round;stroke-miterlimit:4;stroke-dasharray:none;stroke-dashoffset:0;stroke-opacity:1"
       id="path2772"
       cx="51.094265"
       cy="166.74385"
       r="1" />
    <path
       inkscape:connector-curvature="0"
       style="opacity:0.98000004;fill:#a9a9a9;fill-opacity:1;fill-rule:evenodd;stroke:none;stroke-width:0.99999994;stroke-linecap:round;stroke-linejoin:round;stroke-miterlimit:4;stroke-dasharray:none;stroke-dashoffset:0;stroke-opacity:1"
       d="m 49.654058,176.25249 c -0.08329,0 -0.150379,0.0671 -0.150379,0.15038 v 0.98392 h 3.173966 v -0.98392 c 0,-0.0833 -0.06709,-0.15038 -0.150379,-0.15038 z m -0.150379,1.68931 v 0.9834 c 0,0.0833 0.06709,0.15038 0.150379,0.15038 h 2.873208 c 0.08329,0 0.150379,-0.0671 0.150379,-0.15038 v -0.9834 z"
       id="rect2774-2" />
    <circle
       style="opacity:1;fill:#ffd0ab;fill-opacity:1;fill-rule:evenodd;stroke:none;stroke-width:1;stroke-linecap:round;stroke-linejoin:round;stroke-miterlimit:4;stroke-dasharray:none;stroke-dashoffset:0;stroke-opacity:1"
       id="path2772-2"
       cx="51.094265"
       cy="177.66399"
       r="1" />
    <path
       style="fill:none;fill-rule:evenodd;stroke:#000000;stroke-width:0.09999999;stroke-linecap:butt;stroke-linejoin:miter;stroke-miterlimit:4;stroke-dasharray:0.80000001, 0.19999999, 0.09999999, 0.19999999;stroke-dashoffset:0;stroke-opacity:1"
       d="M 43.561758,172.20397 H 199.54206"
       id="path2839"
       inkscape:connector-curvature="0" />
    <path
       style="fill:none;fill-rule:evenodd;stroke:#000000;stroke-width:0.09999999;stroke-linecap:butt;stroke-linejoin:miter;stroke-miterlimit:4;stroke-dasharray:0.6, 0.6;stroke-dashoffset:0;stroke-opacity:1"
       d="M 51.094265,179.09721 V 155.46707"
       id="path2837"
       inkscape:connector-curvature="0" />
    <g
       id="g4520"
       transform="matrix(0.36815714,0,0,0.36815714,21.792419,118.37386)"
       style="stroke-width:2.71623135">
      <g
         word-spacing="normal"
         letter-spacing="normal"
         font-size-adjust="none"
         font-stretch="normal"
         font-weight="normal"
         font-variant="normal"
         font-style="normal"
         stroke-miterlimit="10.433"
         xml:space="preserve"
         transform="matrix(0.3,0,0,-0.3,-52.5,222.75)"
         id="content"
         style="font-style:normal;font-variant:normal;font-weight:normal;font-stretch:normal;letter-spacing:normal;word-spacing:normal;text-anchor:start;fill:none;fill-opacity:1;fill-rule:evenodd;stroke:#000000;stroke-width:2.71623135;stroke-linecap:butt;stroke-linejoin:miter;stroke-miterlimit:10.43299961;stroke-dasharray:none;stroke-dashoffset:0;stroke-opacity:1"><path
           id="path4517"
           d="m 475,424.84 -0.13,-0.01 -0.12,-0.01 -0.13,-0.02 -0.12,-0.03 -0.12,-0.03 -0.12,-0.04 -0.11,-0.04 -0.11,-0.04 -0.11,-0.05 -0.1,-0.06 -0.1,-0.06 -0.1,-0.06 -0.09,-0.07 -0.09,-0.07 -0.09,-0.07 -0.08,-0.08 -0.08,-0.08 -0.07,-0.08 -0.07,-0.09 -0.06,-0.08 -0.06,-0.09 -0.06,-0.1 -0.05,-0.09 -0.04,-0.1 -0.04,-0.09 -0.04,-0.1 -0.03,-0.1 -0.02,-0.1 -0.02,-0.1 -0.02,-0.11 v -0.1 l -0.01,-0.1 c 0,-0.7 0.44,-1.44 1.55,-1.44 1.09,0 2.28,0.85 2.28,2.78 0,2.25 -2.14,4.28 -5.92,4.28 -6.58,0 -8.42,-5.07 -8.42,-7.26 0,-3.89 3.69,-4.64 5.12,-4.94 2.6,-0.5 5.19,-1.05 5.19,-3.78 0,-1.3 -1.14,-5.48 -7.12,-5.48 -0.71,0 -4.54,0 -5.69,2.64 1.9,-0.25 3.14,1.25 3.14,2.64 0,1.14 -0.8,1.75 -1.85,1.75 -1.29,0 -2.78,-1.05 -2.78,-3.3 0,-2.84 2.85,-4.83 7.13,-4.83 8.06,0 10.01,6.03 10.01,8.27 0,1.79 -0.95,3.04 -1.54,3.64 -1.35,1.39 -2.8,1.64 -4.99,2.09 -1.79,0.39 -3.78,0.75 -3.78,2.99 0,1.45 1.19,4.48 5.58,4.48 1.23,0 3.73,-0.34 4.48,-2.28 z"
           inkscape:connector-curvature="0"
           style="fill:#000000;stroke-width:0" /></g>    </g>
  </g>
  <g
     inkscape:groupmode="layer"
     id="layer2"
     inkscape:label="cylinder"
     style="opacity:0.42699998"
     transform="translate(-28.915176,-150.40041)">
    <rect
       style="display:inline;opacity:1;fill:#f0f0f0;fill-opacity:1;stroke:#000000;stroke-width:0.2;stroke-linecap:round;stroke-linejoin:miter;stroke-miterlimit:4;stroke-dasharray:none;stroke-dashoffset:0;stroke-opacity:1"
       id="rect10175-2-1"
       width="10.146791"
       height="7.8970475"
       x="46.584961"
       y="168.25545" />
    <rect
       style="display:inline;opacity:1;fill:#dadada;fill-opacity:1;stroke:#000000;stroke-width:0.56400007;stroke-linecap:round;stroke-linejoin:miter;stroke-miterlimit:4;stroke-dasharray:none;stroke-dashoffset:0;stroke-opacity:1"
       id="rect10175-2-1-9"
       width="19.902498"
       height="7.8970475"
       x="160.899"
       y="168.25545" />
    <rect
       style="display:inline;opacity:1;fill:#f0f0f0;fill-opacity:1;stroke:#000000;stroke-width:0.56409168;stroke-linecap:round;stroke-linejoin:miter;stroke-miterlimit:4;stroke-dasharray:none;stroke-dashoffset:0;stroke-opacity:1"
       id="rect10173"
       width="84.158669"
       height="28.906374"
       x="66.734978"
       y="157.75079" />
    <rect
       style="display:inline;opacity:1;fill:#f0f0f0;fill-opacity:1;stroke:#000000;stroke-width:0.56400013;stroke-linecap:round;stroke-linejoin:miter;stroke-miterlimit:4;stroke-dasharray:none;stroke-dashoffset:0;stroke-opacity:1"
       id="rect10175"
       width="2.040041"
       height="25.041189"
       x="150.92596"
       y="159.68382" />
    <path
       style="display:inline;fill:#b7b7b7;fill-opacity:1;fill-rule:evenodd;stroke:#000000;stroke-width:0.56400007;stroke-linecap:butt;stroke-linejoin:miter;stroke-miterlimit:4;stroke-dasharray:none;stroke-opacity:1"
       d="m 152.98525,157.79809 v 28.81179 l 7.90224,1.3267 v -31.46519 z"
       id="path10192"
       inkscape:connector-curvature="0"
       sodipodi:nodetypes="ccccc" />
    <rect
       style="display:inline;opacity:1;fill:#f0f0f0;fill-opacity:1;stroke:#000000;stroke-width:0.56400013;stroke-linecap:round;stroke-linejoin:miter;stroke-miterlimit:4;stroke-dasharray:none;stroke-dashoffset:0;stroke-opacity:1"
       id="rect10175-7"
       width="2.040041"
       height="25.041189"
       x="64.704079"
       y="159.68338" />
    <path
       style="display:inline;fill:#b7b7b7;fill-opacity:1;fill-rule:evenodd;stroke:#000000;stroke-width:0.56400007;stroke-linecap:butt;stroke-linejoin:miter;stroke-miterlimit:4;stroke-dasharray:none;stroke-opacity:1"
       d="m 64.653214,157.79718 v 28.81361 l -7.902228,1.32677 v -31.46715 z"
       id="path10192-1"
       inkscape:connector-curvature="0"
       sodipodi:nodetypes="ccccc" />
  </g>
</svg>
