<?xml version="1.0" encoding="UTF-8" standalone="no"?>
<svg
   xmlns:dc="http://purl.org/dc/elements/1.1/"
   xmlns:cc="http://creativecommons.org/ns#"
   xmlns:rdf="http://www.w3.org/1999/02/22-rdf-syntax-ns#"
   xmlns:svg="http://www.w3.org/2000/svg"
   xmlns="http://www.w3.org/2000/svg"
   xmlns:xlink="http://www.w3.org/1999/xlink"
   xmlns:sodipodi="http://sodipodi.sourceforge.net/DTD/sodipodi-0.dtd"
   xmlns:inkscape="http://www.inkscape.org/namespaces/inkscape"
   width="174.39021mm"
   height="109.17643mm"
   viewBox="0 0 174.39021 109.17643"
   version="1.1"
   id="svg8"
   sodipodi:docname="riro_tension_screw.svg"
   inkscape:version="1.0.2-2 (e86c870879, 2021-01-15)"
   inkscape:export-filename="C:\Users\martijn\repos\madernpytools\madernpytools\figures\riro_tension_screw.png"
   inkscape:export-xdpi="300.03601"
   inkscape:export-ydpi="300.03601">
  <defs
     id="defs2">
    <marker
       style="overflow:visible"
       id="DotS"
       refX="0"
       refY="0"
       orient="auto"
       inkscape:stockid="DotS"
       inkscape:isstock="true">
      <path
         transform="matrix(0.2,0,0,0.2,1.48,0.2)"
         style="fill:#000000;fill-opacity:1;fill-rule:evenodd;stroke:#000000;stroke-width:1pt;stroke-opacity:1"
         d="m -2.5,-1 c 0,2.76 -2.24,5 -5,5 -2.76,0 -5,-2.24 -5,-5 0,-2.76 2.24,-5 5,-5 2.76,0 5,2.24 5,5 z"
         id="path1055" />
    </marker>
    <marker
       style="overflow:visible"
       id="DotM"
       refX="0"
       refY="0"
       orient="auto"
       inkscape:stockid="DotM"
       inkscape:isstock="true">
      <path
         transform="matrix(0.4,0,0,0.4,2.96,0.4)"
         style="fill:#000000;fill-opacity:1;fill-rule:evenodd;stroke:#000000;stroke-width:1pt;stroke-opacity:1"
         d="m -2.5,-1 c 0,2.76 -2.24,5 -5,5 -2.76,0 -5,-2.24 -5,-5 0,-2.76 2.24,-5 5,-5 2.76,0 5,2.24 5,5 z"
         id="path1052" />
    </marker>
    <inkscape:path-effect
       effect="simplify"
       id="path-effect2517"
       is_visible="true"
       lpeversion="1"
       steps="1"
       threshold="0.00299363"
       smooth_angles="360"
       helper_size="0"
       simplify_individual_paths="false"
       simplify_just_coalesce="false" />
    <marker
       style="overflow:visible"
       id="TriangleOutM"
       refX="0"
       refY="0"
       orient="auto"
       inkscape:stockid="TriangleOutM"
       inkscape:isstock="true">
      <path
         transform="scale(0.4)"
         style="fill:#ff0004;fill-opacity:1;fill-rule:evenodd;stroke:#ff0004;stroke-width:1pt;stroke-opacity:1"
         d="M 5.77,0 -2.88,5 V -5 Z"
         id="path1133" />
    </marker>
    <marker
       style="overflow:visible"
       id="Arrow1Mend"
       refX="0"
       refY="0"
       orient="auto"
       inkscape:stockid="Arrow1Mend"
       inkscape:isstock="true">
      <path
         transform="matrix(-0.4,0,0,-0.4,-4,0)"
         style="fill:#000000;fill-opacity:1;fill-rule:evenodd;stroke:#000000;stroke-width:1pt;stroke-opacity:1"
         d="M 0,0 5,-5 -12.5,0 5,5 Z"
         id="path997" />
    </marker>
    <marker
       style="overflow:visible"
       id="Arrow1Mstart"
       refX="0"
       refY="0"
       orient="auto"
       inkscape:stockid="Arrow1Mstart"
       inkscape:isstock="true">
      <path
         transform="matrix(0.4,0,0,0.4,4,0)"
         style="fill:#000000;fill-opacity:1;fill-rule:evenodd;stroke:#000000;stroke-width:1pt;stroke-opacity:1"
         d="M 0,0 5,-5 -12.5,0 5,5 Z"
         id="path994" />
    </marker>
    <marker
       style="overflow:visible"
       id="TriangleOutM-6"
       refX="0"
       refY="0"
       orient="auto"
       inkscape:stockid="TriangleOutM"
       inkscape:isstock="true">
      <path
         transform="scale(0.4)"
         style="fill:#ff0004;fill-opacity:1;fill-rule:evenodd;stroke:#ff0004;stroke-width:1pt;stroke-opacity:1"
         d="M 5.77,0 -2.88,5 V -5 Z"
         id="path1133-7" />
    </marker>
    <marker
       style="overflow:visible"
       id="TriangleOutM-7"
       refX="0"
       refY="0"
       orient="auto"
       inkscape:stockid="TriangleOutM"
       inkscape:isstock="true">
      <path
         transform="scale(0.4)"
         style="fill:#ff0004;fill-opacity:1;fill-rule:evenodd;stroke:#ff0004;stroke-width:1pt;stroke-opacity:1"
         d="M 5.77,0 -2.88,5 V -5 Z"
         id="path1133-3" />
    </marker>
    <marker
       style="overflow:visible"
       id="TriangleOutM-5"
       refX="0"
       refY="0"
       orient="auto"
       inkscape:stockid="TriangleOutM"
       inkscape:isstock="true">
      <path
         transform="scale(0.4)"
         style="fill:#ff0004;fill-opacity:1;fill-rule:evenodd;stroke:#ff0004;stroke-width:1pt;stroke-opacity:1"
         d="M 5.77,0 -2.88,5 V -5 Z"
         id="path1133-1" />
    </marker>
    <marker
       style="overflow:visible"
       id="TriangleOutM-4"
       refX="0"
       refY="0"
       orient="auto"
       inkscape:stockid="TriangleOutM"
       inkscape:isstock="true">
      <path
         transform="scale(0.4)"
         style="fill:#ff0004;fill-opacity:1;fill-rule:evenodd;stroke:#ff0004;stroke-width:1pt;stroke-opacity:1"
         d="M 5.77,0 -2.88,5 V -5 Z"
         id="path1133-9" />
    </marker>
    <marker
       style="overflow:visible"
       id="TriangleOutM-9"
       refX="0"
       refY="0"
       orient="auto"
       inkscape:stockid="TriangleOutM"
       inkscape:isstock="true">
      <path
         transform="scale(0.4)"
         style="fill:#ff0004;fill-opacity:1;fill-rule:evenodd;stroke:#ff0004;stroke-width:1pt;stroke-opacity:1"
         d="M 5.77,0 -2.88,5 V -5 Z"
         id="path1133-77" />
    </marker>
    <marker
       style="overflow:visible"
       id="TriangleOutM-79"
       refX="0"
       refY="0"
       orient="auto"
       inkscape:stockid="TriangleOutM"
       inkscape:isstock="true">
      <path
         transform="scale(0.4)"
         style="fill:#ff0004;fill-opacity:1;fill-rule:evenodd;stroke:#ff0004;stroke-width:1pt;stroke-opacity:1"
         d="M 5.77,0 -2.88,5 V -5 Z"
         id="path1133-5" />
    </marker>
    <marker
       style="overflow:visible"
       id="TriangleOutM-7-4"
       refX="0"
       refY="0"
       orient="auto"
       inkscape:stockid="TriangleOutM"
       inkscape:isstock="true">
      <path
         transform="scale(0.4)"
         style="fill:#ff0004;fill-opacity:1;fill-rule:evenodd;stroke:#ff0004;stroke-width:1pt;stroke-opacity:1"
         d="M 5.77,0 -2.88,5 V -5 Z"
         id="path1133-3-7" />
    </marker>
    <g
       id="g7186">
      <symbol
         overflow="visible"
         id="symbol963">
        <path
           style="stroke:none"
           d=""
           id="path622" />
      </symbol>
      <symbol
         overflow="visible"
         id="symbol689">
        <path
           style="stroke:none"
           d="m 2.578125,-6.8125 c 0,0 0,-0.109375 -0.140625,-0.109375 -0.21875,0 -0.953125,0.078125 -1.21875,0.109375 -0.078125,0 -0.1875,0.015625 -0.1875,0.203125 0,0.109375 0.109375,0.109375 0.25,0.109375 0.484375,0 0.5,0.09375 0.5,0.171875 L 1.75,-6.125 0.484375,-1.140625 C 0.453125,-1.03125 0.4375,-0.96875 0.4375,-0.8125 c 0,0.578125 0.4375,0.921875 0.90625,0.921875 0.328125,0 0.578125,-0.203125 0.75,-0.5625 0.171875,-0.375 0.296875,-0.953125 0.296875,-0.96875 0,-0.109375 -0.09375,-0.109375 -0.125,-0.109375 -0.09375,0 -0.109375,0.046875 -0.125,0.1875 C 1.96875,-0.703125 1.78125,-0.109375 1.375,-0.109375 c -0.296875,0 -0.296875,-0.3125 -0.296875,-0.453125 0,-0.25 0.015625,-0.296875 0.0625,-0.484375 z m 0,0"
           id="path5818" />
      </symbol>
      <symbol
         overflow="visible"
         id="symbol6126">
        <path
           style="stroke:none"
           d=""
           id="path2054" />
      </symbol>
      <symbol
         overflow="visible"
         id="symbol1676">
        <path
           style="stroke:none"
           d="m 1.4375,-4.84375 -1.046875,0.078125 v 0.25 c 0.46875,0 0.515625,0.0625 0.515625,0.390625 v 3.578125 C 0.90625,-0.25 0.84375,-0.25 0.390625,-0.25 V 0 c 0.015625,0 0.5,-0.03125 0.78125,-0.03125 0.265625,0 0.515625,0.015625 0.78125,0.03125 V -0.25 C 1.5,-0.25 1.4375,-0.25 1.4375,-0.546875 Z m 0,0"
           id="path2217" />
      </symbol>
      <symbol
         overflow="visible"
         id="symbol5636">
        <path
           style="stroke:none"
           d="m 3.6875,-1.484375 c 0,-0.875 -0.75,-1.625 -1.703125,-1.625 -0.96875,0 -1.71875,0.75 -1.71875,1.625 0,0.859375 0.765625,1.546875 1.71875,1.546875 0.9375,0 1.703125,-0.6875 1.703125,-1.546875 z M 1.984375,-0.15625 c -0.265625,0 -0.640625,-0.078125 -0.875,-0.421875 -0.1875,-0.28125 -0.203125,-0.640625 -0.203125,-0.96875 0,-0.296875 0,-0.71875 0.25,-1.015625 0.171875,-0.203125 0.46875,-0.34375 0.828125,-0.34375 0.40625,0 0.703125,0.1875 0.859375,0.40625 0.1875,0.265625 0.203125,0.625 0.203125,0.953125 0,0.328125 -0.015625,0.703125 -0.21875,0.984375 -0.1875,0.265625 -0.5,0.40625 -0.84375,0.40625 z m 0,0"
           id="path1492" />
      </symbol>
      <symbol
         overflow="visible"
         id="symbol3891">
        <path
           style="stroke:none"
           d="m 3.109375,-1.875 c 0,-0.359375 0,-0.625 -0.328125,-0.890625 C 2.5,-3 2.171875,-3.109375 1.75,-3.109375 c -0.65625,0 -1.125,0.25 -1.125,0.671875 0,0.234375 0.15625,0.34375 0.34375,0.34375 0.1875,0 0.328125,-0.140625 0.328125,-0.328125 0,-0.109375 -0.0625,-0.265625 -0.25,-0.3125 0.25,-0.171875 0.65625,-0.171875 0.6875,-0.171875 0.390625,0 0.828125,0.25 0.828125,0.84375 v 0.203125 C 2.171875,-1.84375 1.71875,-1.8125 1.203125,-1.625 c -0.625,0.21875 -0.8125,0.609375 -0.8125,0.921875 0,0.59375 0.71875,0.765625 1.21875,0.765625 0.546875,0 0.875,-0.3125 1.03125,-0.578125 0.015625,0.28125 0.203125,0.546875 0.53125,0.546875 0.015625,0 0.6875,0 0.6875,-0.65625 V -1.015625 H 3.625 v 0.375 c 0,0.078125 0,0.40625 -0.265625,0.40625 -0.25,0 -0.25,-0.328125 -0.25,-0.40625 z M 2.5625,-0.984375 c 0,0.671875 -0.59375,0.859375 -0.90625,0.859375 -0.359375,0 -0.6875,-0.234375 -0.6875,-0.578125 0,-0.390625 0.328125,-0.921875 1.59375,-0.96875 z m 0,0"
           id="path3675" />
      </symbol>
      <symbol
         overflow="visible"
         id="symbol5347">
        <path
           style="stroke:none"
           d="m 2.484375,-4.765625 v 0.25 C 2.953125,-4.515625 3,-4.453125 3,-4.125 v 1.453125 c -0.25,-0.25 -0.59375,-0.40625 -0.96875,-0.40625 -0.9375,0 -1.703125,0.703125 -1.703125,1.578125 0,0.875 0.734375,1.5625 1.609375,1.5625 0.578125,0 0.921875,-0.296875 1.03125,-0.421875 V 0.0625 L 4.046875,0 V -0.25 C 3.578125,-0.25 3.53125,-0.296875 3.53125,-0.640625 V -4.84375 Z m 0.484375,4.03125 C 2.796875,-0.40625 2.4375,-0.125 1.984375,-0.125 1.59375,-0.125 1.3125,-0.359375 1.171875,-0.5625 1.03125,-0.765625 0.953125,-1.046875 0.953125,-1.484375 c 0,-0.171875 0,-0.6875 0.28125,-1.015625 0.28125,-0.3125 0.625,-0.375 0.828125,-0.375 0.328125,0 0.640625,0.15625 0.828125,0.40625 0.078125,0.109375 0.078125,0.109375 0.078125,0.25 z m 0,0"
           id="path4970" />
      </symbol>
      <symbol
         overflow="visible"
         id="symbol1333">
        <path
           style="stroke:none"
           d="m 3.0625,-1.59375 c 0.15625,0 0.203125,0 0.203125,-0.140625 0,-0.625 -0.34375,-1.375 -1.390625,-1.375 -0.90625,0 -1.609375,0.71875 -1.609375,1.578125 0,0.890625 0.78125,1.59375 1.703125,1.59375 0.9375,0 1.296875,-0.75 1.296875,-0.90625 0,-0.015625 -0.015625,-0.09375 -0.125,-0.09375 -0.09375,0 -0.109375,0.046875 -0.125,0.109375 -0.21875,0.5625 -0.75,0.671875 -1,0.671875 C 1.6875,-0.15625 1.375,-0.296875 1.171875,-0.5625 0.90625,-0.890625 0.90625,-1.3125 0.90625,-1.59375 Z M 0.90625,-1.765625 C 0.984375,-2.75 1.609375,-2.90625 1.875,-2.90625 c 0.859375,0 0.890625,0.96875 0.90625,1.140625 z m 0,0"
           id="path2326" />
      </symbol>
    </g>
    <g
       id="g9726">
      <symbol
         overflow="visible"
         id="symbol7869">
        <path
           style="stroke:none;"
           d=""
           id="path2066" />
      </symbol>
      <symbol
         overflow="visible"
         id="symbol6235">
        <path
           style="stroke:none;"
           d="M 6.640625 -6.75 L 0.546875 -6.75 L 0.359375 -4.5 L 0.609375 -4.5 C 0.75 -6.109375 0.890625 -6.4375 2.40625 -6.4375 C 2.578125 -6.4375 2.84375 -6.4375 2.9375 -6.421875 C 3.15625 -6.375 3.15625 -6.265625 3.15625 -6.046875 L 3.15625 -0.78125 C 3.15625 -0.453125 3.15625 -0.3125 2.109375 -0.3125 L 1.703125 -0.3125 L 1.703125 0 C 2.109375 -0.03125 3.125 -0.03125 3.59375 -0.03125 C 4.046875 -0.03125 5.078125 -0.03125 5.484375 0 L 5.484375 -0.3125 L 5.078125 -0.3125 C 4.03125 -0.3125 4.03125 -0.453125 4.03125 -0.78125 L 4.03125 -6.046875 C 4.03125 -6.234375 4.03125 -6.375 4.21875 -6.421875 C 4.328125 -6.4375 4.59375 -6.4375 4.78125 -6.4375 C 6.296875 -6.4375 6.4375 -6.109375 6.578125 -4.5 L 6.828125 -4.5 Z M 6.640625 -6.75 "
           id="path9479" />
      </symbol>
      <symbol
         overflow="visible"
         id="symbol2925">
        <path
           style="stroke:none;"
           d="M 1.09375 -0.75 C 1.09375 -0.3125 0.984375 -0.3125 0.3125 -0.3125 L 0.3125 0 C 0.671875 -0.015625 1.171875 -0.03125 1.453125 -0.03125 C 1.703125 -0.03125 2.21875 -0.015625 2.5625 0 L 2.5625 -0.3125 C 1.890625 -0.3125 1.78125 -0.3125 1.78125 -0.75 L 1.78125 -2.59375 C 1.78125 -3.625 2.5 -4.1875 3.125 -4.1875 C 3.765625 -4.1875 3.875 -3.65625 3.875 -3.078125 L 3.875 -0.75 C 3.875 -0.3125 3.765625 -0.3125 3.09375 -0.3125 L 3.09375 0 C 3.4375 -0.015625 3.953125 -0.03125 4.21875 -0.03125 C 4.46875 -0.03125 5 -0.015625 5.328125 0 L 5.328125 -0.3125 C 4.8125 -0.3125 4.5625 -0.3125 4.5625 -0.609375 L 4.5625 -2.515625 C 4.5625 -3.375 4.5625 -3.671875 4.25 -4.03125 C 4.109375 -4.203125 3.78125 -4.40625 3.203125 -4.40625 C 2.359375 -4.40625 1.921875 -3.8125 1.75 -3.421875 L 1.75 -6.921875 L 0.3125 -6.8125 L 0.3125 -6.5 C 1.015625 -6.5 1.09375 -6.4375 1.09375 -5.9375 Z M 1.09375 -0.75 "
           id="path1244" />
      </symbol>
      <symbol
         overflow="visible"
         id="symbol7848">
        <path
           style="stroke:none;"
           d="M 1.671875 -3.3125 L 1.671875 -4.40625 L 0.28125 -4.296875 L 0.28125 -3.984375 C 0.984375 -3.984375 1.0625 -3.921875 1.0625 -3.421875 L 1.0625 -0.75 C 1.0625 -0.3125 0.953125 -0.3125 0.28125 -0.3125 L 0.28125 0 C 0.671875 -0.015625 1.140625 -0.03125 1.421875 -0.03125 C 1.8125 -0.03125 2.28125 -0.03125 2.6875 0 L 2.6875 -0.3125 L 2.46875 -0.3125 C 1.734375 -0.3125 1.71875 -0.421875 1.71875 -0.78125 L 1.71875 -2.3125 C 1.71875 -3.296875 2.140625 -4.1875 2.890625 -4.1875 C 2.953125 -4.1875 2.984375 -4.1875 3 -4.171875 C 2.96875 -4.171875 2.765625 -4.046875 2.765625 -3.78125 C 2.765625 -3.515625 2.984375 -3.359375 3.203125 -3.359375 C 3.375 -3.359375 3.625 -3.484375 3.625 -3.796875 C 3.625 -4.109375 3.3125 -4.40625 2.890625 -4.40625 C 2.15625 -4.40625 1.796875 -3.734375 1.671875 -3.3125 Z M 1.671875 -3.3125 "
           id="path5264" />
      </symbol>
      <symbol
         overflow="visible"
         id="symbol6616">
        <path
           style="stroke:none;"
           d="M 1.109375 -2.515625 C 1.171875 -4 2.015625 -4.25 2.359375 -4.25 C 3.375 -4.25 3.484375 -2.90625 3.484375 -2.515625 Z M 1.109375 -2.296875 L 3.890625 -2.296875 C 4.109375 -2.296875 4.140625 -2.296875 4.140625 -2.515625 C 4.140625 -3.5 3.59375 -4.46875 2.359375 -4.46875 C 1.203125 -4.46875 0.28125 -3.4375 0.28125 -2.1875 C 0.28125 -0.859375 1.328125 0.109375 2.46875 0.109375 C 3.6875 0.109375 4.140625 -1 4.140625 -1.1875 C 4.140625 -1.28125 4.0625 -1.3125 4 -1.3125 C 3.921875 -1.3125 3.890625 -1.25 3.875 -1.171875 C 3.53125 -0.140625 2.625 -0.140625 2.53125 -0.140625 C 2.03125 -0.140625 1.640625 -0.4375 1.40625 -0.8125 C 1.109375 -1.28125 1.109375 -1.9375 1.109375 -2.296875 Z M 1.109375 -2.296875 "
           id="path3069" />
      </symbol>
      <symbol
         overflow="visible"
         id="symbol2091">
        <path
           style="stroke:none;"
           d="M 3.3125 -0.75 C 3.359375 -0.359375 3.625 0.0625 4.09375 0.0625 C 4.3125 0.0625 4.921875 -0.078125 4.921875 -0.890625 L 4.921875 -1.453125 L 4.671875 -1.453125 L 4.671875 -0.890625 C 4.671875 -0.3125 4.421875 -0.25 4.3125 -0.25 C 3.984375 -0.25 3.9375 -0.703125 3.9375 -0.75 L 3.9375 -2.734375 C 3.9375 -3.15625 3.9375 -3.546875 3.578125 -3.921875 C 3.1875 -4.3125 2.6875 -4.46875 2.21875 -4.46875 C 1.390625 -4.46875 0.703125 -4 0.703125 -3.34375 C 0.703125 -3.046875 0.90625 -2.875 1.171875 -2.875 C 1.453125 -2.875 1.625 -3.078125 1.625 -3.328125 C 1.625 -3.453125 1.578125 -3.78125 1.109375 -3.78125 C 1.390625 -4.140625 1.875 -4.25 2.1875 -4.25 C 2.6875 -4.25 3.25 -3.859375 3.25 -2.96875 L 3.25 -2.609375 C 2.734375 -2.578125 2.046875 -2.546875 1.421875 -2.25 C 0.671875 -1.90625 0.421875 -1.390625 0.421875 -0.953125 C 0.421875 -0.140625 1.390625 0.109375 2.015625 0.109375 C 2.671875 0.109375 3.125 -0.296875 3.3125 -0.75 Z M 3.25 -2.390625 L 3.25 -1.390625 C 3.25 -0.453125 2.53125 -0.109375 2.078125 -0.109375 C 1.59375 -0.109375 1.1875 -0.453125 1.1875 -0.953125 C 1.1875 -1.5 1.609375 -2.328125 3.25 -2.390625 Z M 3.25 -2.390625 "
           id="path525" />
      </symbol>
      <symbol
         overflow="visible"
         id="symbol9254">
        <path
           style="stroke:none;"
           d="M 3.78125 -0.546875 L 3.78125 0.109375 L 5.25 0 L 5.25 -0.3125 C 4.5625 -0.3125 4.46875 -0.375 4.46875 -0.875 L 4.46875 -6.921875 L 3.046875 -6.8125 L 3.046875 -6.5 C 3.734375 -6.5 3.8125 -6.4375 3.8125 -5.9375 L 3.8125 -3.78125 C 3.53125 -4.140625 3.09375 -4.40625 2.5625 -4.40625 C 1.390625 -4.40625 0.34375 -3.421875 0.34375 -2.140625 C 0.34375 -0.875 1.3125 0.109375 2.453125 0.109375 C 3.09375 0.109375 3.53125 -0.234375 3.78125 -0.546875 Z M 3.78125 -3.21875 L 3.78125 -1.171875 C 3.78125 -1 3.78125 -0.984375 3.671875 -0.8125 C 3.375 -0.328125 2.9375 -0.109375 2.5 -0.109375 C 2.046875 -0.109375 1.6875 -0.375 1.453125 -0.75 C 1.203125 -1.15625 1.171875 -1.71875 1.171875 -2.140625 C 1.171875 -2.5 1.1875 -3.09375 1.46875 -3.546875 C 1.6875 -3.859375 2.0625 -4.1875 2.609375 -4.1875 C 2.953125 -4.1875 3.375 -4.03125 3.671875 -3.59375 C 3.78125 -3.421875 3.78125 -3.40625 3.78125 -3.21875 Z M 3.78125 -3.21875 "
           id="path787" />
      </symbol>
    </g>
    <g
       id="g408">
      <symbol
         overflow="visible"
         id="symbol7682">
        <path
           style="stroke:none;"
           d=""
           id="path8979" />
      </symbol>
      <symbol
         overflow="visible"
         id="symbol6825">
        <path
           style="stroke:none;"
           d="M 2.578125 -6.8125 C 2.578125 -6.8125 2.578125 -6.921875 2.4375 -6.921875 C 2.21875 -6.921875 1.484375 -6.84375 1.21875 -6.8125 C 1.140625 -6.8125 1.03125 -6.796875 1.03125 -6.609375 C 1.03125 -6.5 1.140625 -6.5 1.28125 -6.5 C 1.765625 -6.5 1.78125 -6.40625 1.78125 -6.328125 L 1.75 -6.125 L 0.484375 -1.140625 C 0.453125 -1.03125 0.4375 -0.96875 0.4375 -0.8125 C 0.4375 -0.234375 0.875 0.109375 1.34375 0.109375 C 1.671875 0.109375 1.921875 -0.09375 2.09375 -0.453125 C 2.265625 -0.828125 2.390625 -1.40625 2.390625 -1.421875 C 2.390625 -1.53125 2.296875 -1.53125 2.265625 -1.53125 C 2.171875 -1.53125 2.15625 -1.484375 2.140625 -1.34375 C 1.96875 -0.703125 1.78125 -0.109375 1.375 -0.109375 C 1.078125 -0.109375 1.078125 -0.421875 1.078125 -0.5625 C 1.078125 -0.8125 1.09375 -0.859375 1.140625 -1.046875 Z M 2.578125 -6.8125 "
           id="path8010" />
      </symbol>
      <symbol
         overflow="visible"
         id="symbol7574">
        <path
           style="stroke:none;"
           d=""
           id="path6283" />
      </symbol>
      <symbol
         overflow="visible"
         id="symbol6018">
        <path
           style="stroke:none;"
           d="M 1.4375 -4.84375 L 0.390625 -4.765625 L 0.390625 -4.515625 C 0.859375 -4.515625 0.90625 -4.453125 0.90625 -4.125 L 0.90625 -0.546875 C 0.90625 -0.25 0.84375 -0.25 0.390625 -0.25 L 0.390625 0 C 0.40625 0 0.890625 -0.03125 1.171875 -0.03125 C 1.4375 -0.03125 1.6875 -0.015625 1.953125 0 L 1.953125 -0.25 C 1.5 -0.25 1.4375 -0.25 1.4375 -0.546875 Z M 1.4375 -4.84375 "
           id="path3992" />
      </symbol>
      <symbol
         overflow="visible"
         id="symbol1976">
        <path
           style="stroke:none;"
           d="M 3.6875 -1.484375 C 3.6875 -2.359375 2.9375 -3.109375 1.984375 -3.109375 C 1.015625 -3.109375 0.265625 -2.359375 0.265625 -1.484375 C 0.265625 -0.625 1.03125 0.0625 1.984375 0.0625 C 2.921875 0.0625 3.6875 -0.625 3.6875 -1.484375 Z M 1.984375 -0.15625 C 1.71875 -0.15625 1.34375 -0.234375 1.109375 -0.578125 C 0.921875 -0.859375 0.90625 -1.21875 0.90625 -1.546875 C 0.90625 -1.84375 0.90625 -2.265625 1.15625 -2.5625 C 1.328125 -2.765625 1.625 -2.90625 1.984375 -2.90625 C 2.390625 -2.90625 2.6875 -2.71875 2.84375 -2.5 C 3.03125 -2.234375 3.046875 -1.875 3.046875 -1.546875 C 3.046875 -1.21875 3.03125 -0.84375 2.828125 -0.5625 C 2.640625 -0.296875 2.328125 -0.15625 1.984375 -0.15625 Z M 1.984375 -0.15625 "
           id="path6753" />
      </symbol>
      <symbol
         overflow="visible"
         id="symbol9802">
        <path
           style="stroke:none;"
           d="M 3.109375 -1.875 C 3.109375 -2.234375 3.109375 -2.5 2.78125 -2.765625 C 2.5 -3 2.171875 -3.109375 1.75 -3.109375 C 1.09375 -3.109375 0.625 -2.859375 0.625 -2.4375 C 0.625 -2.203125 0.78125 -2.09375 0.96875 -2.09375 C 1.15625 -2.09375 1.296875 -2.234375 1.296875 -2.421875 C 1.296875 -2.53125 1.234375 -2.6875 1.046875 -2.734375 C 1.296875 -2.90625 1.703125 -2.90625 1.734375 -2.90625 C 2.125 -2.90625 2.5625 -2.65625 2.5625 -2.0625 L 2.5625 -1.859375 C 2.171875 -1.84375 1.71875 -1.8125 1.203125 -1.625 C 0.578125 -1.40625 0.390625 -1.015625 0.390625 -0.703125 C 0.390625 -0.109375 1.109375 0.0625 1.609375 0.0625 C 2.15625 0.0625 2.484375 -0.25 2.640625 -0.515625 C 2.65625 -0.234375 2.84375 0.03125 3.171875 0.03125 C 3.1875 0.03125 3.859375 0.03125 3.859375 -0.625 L 3.859375 -1.015625 L 3.625 -1.015625 L 3.625 -0.640625 C 3.625 -0.5625 3.625 -0.234375 3.359375 -0.234375 C 3.109375 -0.234375 3.109375 -0.5625 3.109375 -0.640625 Z M 2.5625 -0.984375 C 2.5625 -0.3125 1.96875 -0.125 1.65625 -0.125 C 1.296875 -0.125 0.96875 -0.359375 0.96875 -0.703125 C 0.96875 -1.09375 1.296875 -1.625 2.5625 -1.671875 Z M 2.5625 -0.984375 "
           id="path3454" />
      </symbol>
      <symbol
         overflow="visible"
         id="symbol929">
        <path
           style="stroke:none;"
           d="M 2.484375 -4.765625 L 2.484375 -4.515625 C 2.953125 -4.515625 3 -4.453125 3 -4.125 L 3 -2.671875 C 2.75 -2.921875 2.40625 -3.078125 2.03125 -3.078125 C 1.09375 -3.078125 0.328125 -2.375 0.328125 -1.5 C 0.328125 -0.625 1.0625 0.0625 1.9375 0.0625 C 2.515625 0.0625 2.859375 -0.234375 2.96875 -0.359375 L 2.96875 0.0625 L 4.046875 0 L 4.046875 -0.25 C 3.578125 -0.25 3.53125 -0.296875 3.53125 -0.640625 L 3.53125 -4.84375 Z M 2.96875 -0.734375 C 2.796875 -0.40625 2.4375 -0.125 1.984375 -0.125 C 1.59375 -0.125 1.3125 -0.359375 1.171875 -0.5625 C 1.03125 -0.765625 0.953125 -1.046875 0.953125 -1.484375 C 0.953125 -1.65625 0.953125 -2.171875 1.234375 -2.5 C 1.515625 -2.8125 1.859375 -2.875 2.0625 -2.875 C 2.390625 -2.875 2.703125 -2.71875 2.890625 -2.46875 C 2.96875 -2.359375 2.96875 -2.359375 2.96875 -2.21875 Z M 2.96875 -0.734375 "
           id="path4302" />
      </symbol>
      <symbol
         overflow="visible"
         id="symbol8135">
        <path
           style="stroke:none;"
           d="M 3.0625 -1.59375 C 3.21875 -1.59375 3.265625 -1.59375 3.265625 -1.734375 C 3.265625 -2.359375 2.921875 -3.109375 1.875 -3.109375 C 0.96875 -3.109375 0.265625 -2.390625 0.265625 -1.53125 C 0.265625 -0.640625 1.046875 0.0625 1.96875 0.0625 C 2.90625 0.0625 3.265625 -0.6875 3.265625 -0.84375 C 3.265625 -0.859375 3.25 -0.9375 3.140625 -0.9375 C 3.046875 -0.9375 3.03125 -0.890625 3.015625 -0.828125 C 2.796875 -0.265625 2.265625 -0.15625 2.015625 -0.15625 C 1.6875 -0.15625 1.375 -0.296875 1.171875 -0.5625 C 0.90625 -0.890625 0.90625 -1.3125 0.90625 -1.59375 Z M 0.90625 -1.765625 C 0.984375 -2.75 1.609375 -2.90625 1.875 -2.90625 C 2.734375 -2.90625 2.765625 -1.9375 2.78125 -1.765625 Z M 0.90625 -1.765625 "
           id="path6405" />
      </symbol>
      <symbol
         overflow="visible"
         id="symbol181">
        <path
           style="stroke:none;"
           d=""
           id="path8418" />
      </symbol>
      <symbol
         overflow="visible"
         id="symbol25">
        <path
           style="stroke:none;"
           d="M 3.296875 2.390625 C 3.296875 2.359375 3.296875 2.34375 3.125 2.171875 C 1.890625 0.921875 1.5625 -0.96875 1.5625 -2.5 C 1.5625 -4.234375 1.9375 -5.96875 3.171875 -7.203125 C 3.296875 -7.328125 3.296875 -7.34375 3.296875 -7.375 C 3.296875 -7.453125 3.265625 -7.484375 3.203125 -7.484375 C 3.09375 -7.484375 2.203125 -6.796875 1.609375 -5.53125 C 1.109375 -4.4375 0.984375 -3.328125 0.984375 -2.5 C 0.984375 -1.71875 1.09375 -0.515625 1.640625 0.625 C 2.25 1.84375 3.09375 2.5 3.203125 2.5 C 3.265625 2.5 3.296875 2.46875 3.296875 2.390625 Z M 3.296875 2.390625 "
           id="path6431" />
      </symbol>
      <symbol
         overflow="visible"
         id="symbol8261">
        <path
           style="stroke:none;"
           d="M 1.09375 -3.421875 L 1.09375 -0.75 C 1.09375 -0.3125 0.984375 -0.3125 0.3125 -0.3125 L 0.3125 0 C 0.671875 -0.015625 1.171875 -0.03125 1.453125 -0.03125 C 1.703125 -0.03125 2.21875 -0.015625 2.5625 0 L 2.5625 -0.3125 C 1.890625 -0.3125 1.78125 -0.3125 1.78125 -0.75 L 1.78125 -2.59375 C 1.78125 -3.625 2.5 -4.1875 3.125 -4.1875 C 3.765625 -4.1875 3.875 -3.65625 3.875 -3.078125 L 3.875 -0.75 C 3.875 -0.3125 3.765625 -0.3125 3.09375 -0.3125 L 3.09375 0 C 3.4375 -0.015625 3.953125 -0.03125 4.21875 -0.03125 C 4.46875 -0.03125 5 -0.015625 5.328125 0 L 5.328125 -0.3125 C 4.671875 -0.3125 4.5625 -0.3125 4.5625 -0.75 L 4.5625 -2.59375 C 4.5625 -3.625 5.265625 -4.1875 5.90625 -4.1875 C 6.53125 -4.1875 6.640625 -3.65625 6.640625 -3.078125 L 6.640625 -0.75 C 6.640625 -0.3125 6.53125 -0.3125 5.859375 -0.3125 L 5.859375 0 C 6.203125 -0.015625 6.71875 -0.03125 6.984375 -0.03125 C 7.25 -0.03125 7.765625 -0.015625 8.109375 0 L 8.109375 -0.3125 C 7.59375 -0.3125 7.34375 -0.3125 7.328125 -0.609375 L 7.328125 -2.515625 C 7.328125 -3.375 7.328125 -3.671875 7.015625 -4.03125 C 6.875 -4.203125 6.546875 -4.40625 5.96875 -4.40625 C 5.140625 -4.40625 4.6875 -3.8125 4.53125 -3.421875 C 4.390625 -4.296875 3.65625 -4.40625 3.203125 -4.40625 C 2.46875 -4.40625 2 -3.984375 1.71875 -3.359375 L 1.71875 -4.40625 L 0.3125 -4.296875 L 0.3125 -3.984375 C 1.015625 -3.984375 1.09375 -3.921875 1.09375 -3.421875 Z M 1.09375 -3.421875 "
           id="path4874" />
      </symbol>
      <symbol
         overflow="visible"
         id="symbol7422">
        <path
           style="stroke:none;"
           d="M 2.875 -2.5 C 2.875 -3.265625 2.765625 -4.46875 2.21875 -5.609375 C 1.625 -6.828125 0.765625 -7.484375 0.671875 -7.484375 C 0.609375 -7.484375 0.5625 -7.4375 0.5625 -7.375 C 0.5625 -7.34375 0.5625 -7.328125 0.75 -7.140625 C 1.734375 -6.15625 2.296875 -4.578125 2.296875 -2.5 C 2.296875 -0.78125 1.9375 0.96875 0.703125 2.21875 C 0.5625 2.34375 0.5625 2.359375 0.5625 2.390625 C 0.5625 2.453125 0.609375 2.5 0.671875 2.5 C 0.765625 2.5 1.671875 1.8125 2.25 0.546875 C 2.765625 -0.546875 2.875 -1.65625 2.875 -2.5 Z M 2.875 -2.5 "
           id="path733" />
      </symbol>
    </g>
  </defs>
  <sodipodi:namedview
     id="base"
     pagecolor="#ffffff"
     bordercolor="#666666"
     borderopacity="1.0"
     inkscape:pageopacity="0.0"
     inkscape:pageshadow="2"
     inkscape:zoom="0.98994949"
     inkscape:cx="250.41949"
     inkscape:cy="118.71552"
     inkscape:document-units="mm"
     inkscape:current-layer="layer1"
     inkscape:document-rotation="0"
     showgrid="false"
     inkscape:snap-global="false"
     showguides="true"
     inkscape:guide-bbox="true"
     inkscape:window-width="1920"
     inkscape:window-height="1017"
     inkscape:window-x="1912"
     inkscape:window-y="-8"
     inkscape:window-maximized="1"
     fit-margin-top="0"
     fit-margin-left="0"
     fit-margin-right="0"
     fit-margin-bottom="0">
    <sodipodi:guide
       position="80.246091,22.382234"
       orientation="1,0"
       id="guide969" />
    <sodipodi:guide
       position="98.153148,23.584964"
       orientation="1,0"
       id="guide971" />
  </sodipodi:namedview>
  <metadata
     id="metadata5">
    <rdf:RDF>
      <cc:Work
         rdf:about="">
        <dc:format>image/svg+xml</dc:format>
        <dc:type
           rdf:resource="http://purl.org/dc/dcmitype/StillImage" />
        <dc:title />
      </cc:Work>
    </rdf:RDF>
  </metadata>
  <g
     inkscape:label="Layer 1"
     inkscape:groupmode="layer"
     id="layer1"
     transform="translate(29.999416,-30.670765)">
    <rect
       style="opacity:1;fill:#c5c5c5;fill-opacity:1;stroke:#000000;stroke-width:0.144777;stroke-linecap:round;stroke-linejoin:round;stroke-miterlimit:4;stroke-dasharray:none;stroke-opacity:1"
       id="rect833"
       width="40.892239"
       height="18.912766"
       x="38.754082"
       y="53.784546" />
    <path
       id="rect835"
       style="opacity:1;fill:#c5c5c5;fill-opacity:1;stroke:#000000;stroke-width:0.574488;stroke-linecap:round;stroke-linejoin:round;stroke-miterlimit:4;stroke-dasharray:none;stroke-opacity:1"
       d="m 189.9082,274.76172 v 164.6543 l 8,4.54687 h 51.68164 l 8,-4.54687 v -164.6543 z"
       transform="scale(0.26458333)" />
    <path
       style="fill:none;stroke:#000000;stroke-width:0.264583px;stroke-linecap:butt;stroke-linejoin:miter;stroke-opacity:1"
       d="m 50.199964,116.13318 17.906622,-1.79539"
       id="path837" />
    <path
       style="fill:none;stroke:#000000;stroke-width:0.264583px;stroke-linecap:butt;stroke-linejoin:miter;stroke-opacity:1"
       d="m 50.199964,113.51742 17.906622,-1.79539"
       id="path837-9" />
    <path
       style="fill:none;stroke:#000000;stroke-width:0.264583px;stroke-linecap:butt;stroke-linejoin:miter;stroke-opacity:1"
       d="m 50.199964,110.90164 17.906622,-1.79539"
       id="path837-6" />
    <path
       style="fill:none;stroke:#000000;stroke-width:0.264583px;stroke-linecap:butt;stroke-linejoin:miter;stroke-opacity:1"
       d="m 50.199964,108.28588 17.906622,-1.79539"
       id="path837-3" />
    <path
       style="fill:none;stroke:#000000;stroke-width:0.264583px;stroke-linecap:butt;stroke-linejoin:miter;stroke-opacity:1"
       d="m 50.199965,105.67012 17.90662,-1.79539"
       id="path837-2" />
    <path
       style="fill:none;stroke:#000000;stroke-width:0.264583px;stroke-linecap:butt;stroke-linejoin:miter;stroke-opacity:1"
       d="m 50.199964,103.05434 17.906622,-1.79539"
       id="path837-0" />
    <path
       style="fill:none;stroke:#000000;stroke-width:0.264583px;stroke-linecap:butt;stroke-linejoin:miter;stroke-opacity:1"
       d="M 50.199964,100.43858 68.106586,98.643189"
       id="path837-27" />
    <path
       style="fill:none;stroke:#000000;stroke-width:0.264583px;stroke-linecap:butt;stroke-linejoin:miter;stroke-opacity:1"
       d="m 50.199964,97.822806 17.906622,-1.79539"
       id="path837-32" />
    <path
       style="fill:none;stroke:#000000;stroke-width:0.264583px;stroke-linecap:butt;stroke-linejoin:miter;stroke-opacity:1"
       d="m 50.199964,95.207045 17.906622,-1.79539"
       id="path837-7" />
    <path
       style="fill:none;stroke:#000000;stroke-width:0.264583px;stroke-linecap:butt;stroke-linejoin:miter;stroke-opacity:1"
       d="m 50.199964,89.975512 17.906622,-1.79539"
       id="path837-08" />
    <path
       style="fill:none;stroke:#000000;stroke-width:0.264583px;stroke-linecap:butt;stroke-linejoin:miter;stroke-opacity:1"
       d="m 50.199964,87.359749 17.906622,-1.79539"
       id="path837-5" />
    <path
       style="fill:none;stroke:#000000;stroke-width:0.264583px;stroke-linecap:butt;stroke-linejoin:miter;stroke-opacity:1"
       d="m 50.199964,92.591284 17.906622,-1.79539"
       id="path837-31" />
    <path
       style="fill:none;stroke:#000000;stroke-width:0.264583px;stroke-linecap:butt;stroke-linejoin:miter;stroke-opacity:1"
       d="M 50.199964,84.506025 H 68.106586"
       id="path837-5-0"
       sodipodi:nodetypes="cc" />
    <path
       style="fill:none;stroke:#000000;stroke-width:0.258637;stroke-linecap:butt;stroke-linejoin:miter;stroke-miterlimit:4;stroke-dasharray:none;stroke-opacity:1;marker-start:url(#Arrow1Mstart);marker-end:url(#Arrow1Mend)"
       d="M 35.246279,73.49159 V 99.054543"
       id="path982" />
    <path
       style="fill:none;stroke:#000000;stroke-width:0.247974px;stroke-linecap:butt;stroke-linejoin:miter;stroke-opacity:1"
       d="M 37.431164,72.69731 H 33.072916"
       id="path984"
       sodipodi:nodetypes="cc" />
    <path
       style="fill:none;stroke:#000000;stroke-width:0.263549px;stroke-linecap:butt;stroke-linejoin:miter;stroke-opacity:1"
       d="M 33.072916,99.880207 H 48.167805"
       id="path986"
       sodipodi:nodetypes="cc" />
    <g
       id="g2106"
       transform="translate(0,0.33505472)">
      <path
         style="fill:none;stroke:#ff0004;stroke-width:0.465;stroke-linecap:butt;stroke-linejoin:miter;stroke-miterlimit:4;stroke-dasharray:none;stroke-opacity:1;marker-end:url(#TriangleOutM)"
         d="M 38.754082,78.763829 V 73.755645"
         id="path1350" />
      <path
         style="fill:none;stroke:#ff0004;stroke-width:0.465;stroke-linecap:butt;stroke-linejoin:miter;stroke-miterlimit:4;stroke-dasharray:none;stroke-opacity:1;marker-end:url(#TriangleOutM-6)"
         d="M 45.569458,78.763829 V 73.755645"
         id="path1350-2" />
      <path
         style="fill:none;stroke:#ff0004;stroke-width:0.465;stroke-linecap:butt;stroke-linejoin:miter;stroke-miterlimit:4;stroke-dasharray:none;stroke-opacity:1;marker-end:url(#TriangleOutM-7)"
         d="M 52.384829,78.763829 V 73.755645"
         id="path1350-4" />
      <path
         style="fill:none;stroke:#ff0004;stroke-width:0.465;stroke-linecap:butt;stroke-linejoin:miter;stroke-miterlimit:4;stroke-dasharray:none;stroke-opacity:1;marker-end:url(#TriangleOutM-5)"
         d="M 59.200196,78.763829 V 73.755645"
         id="path1350-3" />
      <path
         style="fill:none;stroke:#ff0004;stroke-width:0.465;stroke-linecap:butt;stroke-linejoin:miter;stroke-miterlimit:4;stroke-dasharray:none;stroke-opacity:1;marker-end:url(#TriangleOutM-4)"
         d="M 66.015574,78.763829 V 73.755645"
         id="path1350-8" />
      <path
         style="fill:none;stroke:#ff0004;stroke-width:0.465;stroke-linecap:butt;stroke-linejoin:miter;stroke-miterlimit:4;stroke-dasharray:none;stroke-opacity:1;marker-end:url(#TriangleOutM-9)"
         d="M 72.830937,78.763829 V 73.755645"
         id="path1350-37" />
      <path
         style="fill:none;stroke:#ff0004;stroke-width:0.465;stroke-linecap:butt;stroke-linejoin:miter;stroke-miterlimit:4;stroke-dasharray:none;stroke-opacity:1;marker-end:url(#TriangleOutM-79)"
         d="M 79.646317,78.763829 V 73.755645"
         id="path1350-42" />
    </g>
    <path
       style="fill:none;stroke:#ff0004;stroke-width:0.797429;stroke-linecap:butt;stroke-linejoin:miter;stroke-miterlimit:4;stroke-dasharray:none;stroke-opacity:1;marker-end:url(#TriangleOutM-7-4)"
       d="m 59.436756,100.05342 v 14.7285"
       id="path1350-4-0" />
    <path
       style="fill:none;stroke:#000000;stroke-width:0.665;stroke-linecap:butt;stroke-linejoin:miter;stroke-miterlimit:4;stroke-dasharray:none;stroke-opacity:1;marker-start:url(#DotS)"
       d="m 65.213764,101.82969 c 4.331604,-1.908822 9.036291,-2.812047 13.735857,-3.187754 3.165241,-0.253045 6.342868,-0.286175 9.516591,-0.28675"
       id="path2515"
       inkscape:path-effect="#path-effect2517"
       inkscape:original-d="M 65.213764,101.82969 C 72.61802,98.588964 80.362482,98.355186 88.466212,98.355186" />
    <g
       inkscape:label=""
       transform="translate(-0.5605821,19.650241)"
       id="g4694">
      <g
         id="g2247">
        <g
           style="fill:#000000;fill-opacity:1"
           id="g4714">
          <use
             xlink:href="#symbol6235"
             x="91.925003"
             y="81.962997"
             id="use637"
             width="100%"
             height="100%" />
          <use
             xlink:href="#symbol2925"
             x="99.119987"
             y="81.962997"
             id="use773"
             width="100%"
             height="100%" />
          <use
             xlink:href="#symbol7848"
             x="104.65521"
             y="81.962997"
             id="use7902"
             width="100%"
             height="100%" />
          <use
             xlink:href="#symbol6616"
             x="108.55756"
             y="81.962997"
             id="use3672"
             width="100%"
             height="100%" />
          <use
             xlink:href="#symbol2091"
             x="112.98494"
             y="81.962997"
             id="use4780"
             width="100%"
             height="100%" />
          <use
             xlink:href="#symbol9254"
             x="117.96624"
             y="81.962997"
             id="use1034"
             width="100%"
             height="100%" />
        </g>
      </g>
    </g>
    <g
       inkscape:label=""
       transform="translate(-84.750488,2.2777216)"
       id="g4876">
      <g
         id="g8911">
        <g
           style="fill:#000000;fill-opacity:1"
           id="g1541">
          <use
             xlink:href="#symbol6825"
             x="91.925003"
             y="81.962997"
             id="use5297"
             width="100%"
             height="100%" />
        </g>
        <g
           style="fill:#000000;fill-opacity:1"
           id="g4520">
          <use
             xlink:href="#symbol6018"
             x="94.898003"
             y="83.457001"
             id="use5875"
             width="100%"
             height="100%" />
          <use
             xlink:href="#symbol1976"
             x="97.153328"
             y="83.457001"
             id="use6287"
             width="100%"
             height="100%" />
          <use
             xlink:href="#symbol9802"
             x="101.12491"
             y="83.457001"
             id="use9311"
             width="100%"
             height="100%" />
          <use
             xlink:href="#symbol929"
             x="105.09648"
             y="83.457001"
             id="use708"
             width="100%"
             height="100%" />
          <use
             xlink:href="#symbol8135"
             x="109.49696"
             y="83.457001"
             id="use2267"
             width="100%"
             height="100%" />
          <use
             xlink:href="#symbol929"
             x="113.03895"
             y="83.457001"
             id="use4922"
             width="100%"
             height="100%" />
        </g>
        <g
           style="fill:#000000;fill-opacity:1"
           id="g8923">
          <use
             xlink:href="#symbol25"
             x="72"
             y="93.917999"
             id="use9415"
             width="100%"
             height="100%"
             transform="matrix(0.70554343,0,0,0.70554343,45.303238,25.450949)" />
          <use
             xlink:href="#symbol8261"
             x="75.874458"
             y="93.917999"
             id="use706"
             width="100%"
             height="100%"
             transform="matrix(0.70554343,0,0,0.70554343,45.303238,25.450949)" />
          <use
             xlink:href="#symbol8261"
             x="84.176292"
             y="93.917999"
             id="use8007"
             width="100%"
             height="100%"
             transform="matrix(0.70554343,0,0,0.70554343,45.303238,25.450949)" />
          <use
             xlink:href="#symbol7422"
             x="92.478127"
             y="93.917999"
             id="use1571"
             width="100%"
             height="100%"
             transform="matrix(0.70554343,0,0,0.70554343,45.303238,25.450949)" />
        </g>
      </g>
    </g>
  </g>
</svg>
